HIERARCHY
ROOT Root
{
	OFFSET 0.00000 0.00000 0.00000
	CHANNELS 6 Xposition Yposition Zposition Zrotation Xrotation Yrotation
	JOINT Hips
	{
		OFFSET 0 0 0	
		CHANNELS 3 Zrotation Xrotation Yrotation
		JOINT Spine
		{
			OFFSET 0 4 0	
			CHANNELS 3 Zrotation Xrotation Yrotation
			JOINT Spine1
			{
				OFFSET 0 19.4 0	
				CHANNELS 3 Zrotation Xrotation Yrotation
				JOINT Spine2
				{
					OFFSET 0 16.6 0	
					CHANNELS 3 Zrotation Xrotation Yrotation
					JOINT LeftCollar
					{
						OFFSET 0 10 0	
						CHANNELS 3 Zrotation Xrotation Yrotation
						JOINT LeftArm
						{
							OFFSET 15.6 -2 3	
							CHANNELS 3 Zrotation Xrotation Yrotation
							JOINT LeftForeArm
							{
								OFFSET 3.5 -27 -1	
								CHANNELS 3 Zrotation Xrotation Yrotation
								JOINT LeftHand
								{
									OFFSET 1 -27 1	
									CHANNELS 3 Zrotation Xrotation Yrotation
									End Site
									{
										OFFSET 0 -15 0
									}
								}
							}
						}
					}
					JOINT RightCollar
					{
						OFFSET 0 10 0	
						CHANNELS 3 Zrotation Xrotation Yrotation
						JOINT RightArm
						{
							OFFSET -15.6 -2 3	
							CHANNELS 3 Zrotation Xrotation Yrotation
							JOINT RightForeArm
							{
								OFFSET -3.5 -27 -1	
								CHANNELS 3 Zrotation Xrotation Yrotation
								JOINT RightHand
								{
									OFFSET -1 -27 1	
									CHANNELS 3 Zrotation Xrotation Yrotation
									End Site
									{
										OFFSET 0 -15 0
									}
								}
							}
						}
					}
					JOINT Neck
					{
						OFFSET 0 10 0	
						CHANNELS 3 Zrotation Xrotation Yrotation
						JOINT Head
						{
							OFFSET 0 12.7 3	
							CHANNELS 3 Zrotation Xrotation Yrotation
							End Site
							{
								OFFSET 0 12.7 3
							}
						}
					}
				}
			}
		}
	}
	JOINT LeftHip
	{
		OFFSET 0 0 0	
		CHANNELS 3 Zrotation Xrotation Yrotation
		JOINT LeftUpLeg
		{
			OFFSET 8.8 -6 0	
			CHANNELS 3 Zrotation Xrotation Yrotation
			JOINT LeftLeg
			{
				OFFSET 0 -39 2	
				CHANNELS 3 Zrotation Xrotation Yrotation
				JOINT LeftFoot
				{
					OFFSET 0 -43 -2	
					CHANNELS 3 Zrotation Xrotation Yrotation
					JOINT LeftFootFront
					{
						OFFSET 0 -7 8.5	
						CHANNELS 3 Zrotation Xrotation Yrotation
						End Site
						{
							OFFSET 0 -0.5 9
						}
					}
				}
				JOINT LeftHeel
				{
					OFFSET 0 -43 -2	
					CHANNELS 3 Zrotation Xrotation Yrotation
					End Site
					{
						OFFSET 0 -7.5 -5
					}
				}
			}
		}
	}
	JOINT RightHip
	{
		OFFSET 0 0 0	
		CHANNELS 3 Zrotation Xrotation Yrotation
		JOINT RightUpLeg
		{
			OFFSET -8.8 -6 0	
			CHANNELS 3 Zrotation Xrotation Yrotation
			JOINT RightLeg
			{
				OFFSET 0 -39 2	
				CHANNELS 3 Zrotation Xrotation Yrotation
				JOINT RightFoot
				{
					OFFSET 0 -43 -2	
					CHANNELS 3 Zrotation Xrotation Yrotation
					JOINT RightFootFront
					{
						OFFSET 0 -7 8.5	
						CHANNELS 3 Zrotation Xrotation Yrotation
						End Site
						{
							OFFSET 0 -0.5 9
						}
					}
				}
				JOINT RightHeel
				{
					OFFSET 0 -43 -2	
					CHANNELS 3 Zrotation Xrotation Yrotation
					End Site
					{
						OFFSET 0 -7.5 -5
					}
				}
			}
		}
	}
}
MOTION
Frames: 11
Frame Time: 0.025
0 92.241 0 -0 0 -0 5.8347 10.848 -40.405 4.497 -3.0965 -11.773 4.497 -3.0965 -11.773 3.8211 -2.5401 -9.9042 -0 0 -0 29.183 37.615 18.958 -118.13 -17.764 -52.002 -0 0 -0 -0 0 -0 -34.877 21.9 -30.676 62.052 -20.933 33.413 -0 0 -0 2.4968 -16.807 7.9737 2.4968 -16.807 7.9737 5.8347 10.848 -40.405 10.007 -23.38 -28.564 -2.417 21.357 -58.69 -0 0 -0 -0 0 -0 -0 0 -0 5.8347 10.848 -40.405 -23.517 -14.403 -47.715 11.464 40.699 -37.906 -0 0 -0 -0 0 -0 -0 0 -0 
0 92.241 0 -0 0 -0 6.23 10.133 -42.246 4.1839 -2.9651 -11.285 4.1839 -2.9651 -11.285 3.5545 -2.4363 -9.4932 -0 0 -0 28.901 37.8 19.734 -118.5 -17.111 -52.42 -0 0 -0 -0 0 -0 -35.122 21.179 -29.839 59.584 -20.505 32.445 -0 0 -0 2.8017 -16.398 9.3304 2.8017 -16.398 9.3304 6.23 10.133 -42.246 10.439 -22.532 -27.047 -1.4371 20.573 -59.489 -0 0 -0 -0 0 -0 -0 0 -0 6.23 10.133 -42.246 -24.676 -15.166 -48.584 12.809 43.218 -36.959 -0 0 -0 -0 0 -0 -0 0 -0 
0 92.241 0 -0 0 -0 6.6275 9.3907 -44.38 3.8889 -2.763 -10.836 3.8889 -2.763 -10.836 3.3025 -2.2723 -9.1143 -0 0 -0 28.425 37.765 20.992 -118.72 -16.358 -52.45 -0 0 -0 -0 0 -0 -35.285 20.036 -28.55 57.198 -20.353 31.627 -0 0 -0 3.147 -16.1 10.769 3.147 -16.1 10.769 6.6275 9.3907 -44.38 11.074 -21.394 -25.978 -0.57643 19.451 -59.588 -0 0 -0 -0 0 -0 -0 0 -0 6.6275 9.3907 -44.38 -25.9 -16.375 -49.588 13.167 46.171 -32.852 -0 0 -0 -0 0 -0 -0 0 -0 
0 92.241 0 -0 0 -0 6.8683 8.6505 -46.624 3.6726 -2.4736 -10.501 3.6725 -2.4736 -10.501 3.116 -2.0333 -8.8312 -0 0 -0 27.651 37.582 22.73 -118.76 -15.611 -51.907 -0 0 -0 -0 0 -0 -35.342 18.307 -26.858 55.043 -20.253 30.64 -0 0 -0 3.4874 -15.922 12.346 3.4874 -15.922 12.346 6.8683 8.6505 -46.624 11.898 -19.881 -25.579 0.28098 17.99 -58.78 -0 0 -0 -0 0 -0 -0 0 -0 6.8683 8.6505 -46.624 -26.94 -17.935 -51.013 12.691 49.796 -29.056 -0 0 -0 -0 0 -0 -0 0 -0 
0 92.241 0 -0 0 -0 6.8575 7.9908 -48.87 3.574 -2.1864 -10.342 3.574 -2.1864 -10.342 3.0293 -1.7938 -8.6957 -0 0 -0 26.488 37.591 24.794 -118.8 -15.117 -50.963 -0 0 -0 -0 0 -0 -35.386 16.091 -24.684 53.038 -20.088 29.393 -0 0 -0 3.8073 -15.725 14.127 3.8073 -15.725 14.127 6.8575 7.9908 -48.87 12.937 -17.993 -25.918 1.2894 16.313 -57.222 -0 0 -0 -0 0 -0 -0 0 -0 6.8575 7.9908 -48.87 -26.965 -19.539 -52.366 11.887 52.952 -26.171 -0 0 -0 -0 0 -0 -0 0 -0 
0 92.241 0 -0 0 -0 6.7421 7.5136 -51.131 3.5573 -2.0218 -10.361 3.5573 -2.0218 -10.361 3.0133 -1.6556 -8.7114 -0 0 -0 24.871 38.018 27.124 -118.93 -15.087 -50.092 -0 0 -0 -0 0 -0 -35.429 13.558 -22.006 50.973 -19.848 28.164 -0 0 -0 4.1792 -15.367 16.127 4.1792 -15.367 16.127 6.7421 7.5136 -51.131 14.249 -16.031 -26.859 2.4632 14.687 -55.145 -0 0 -0 -0 0 -0 -0 0 -0 6.7421 7.5136 -51.131 -25.74 -20.961 -53.266 11.096 54.848 -23.756 -0 0 -0 -0 0 -0 -0 0 -0 
0 92.241 0 -0 0 -0 6.796 7.2259 -53.37 3.6114 -2.0428 -10.501 3.6114 -2.0428 -10.501 3.0594 -1.672 -8.8292 -0 0 -0 22.648 38.655 29.768 -118.97 -15.308 -49.536 -0 0 -0 -0 0 -0 -35.513 10.815 -19.155 48.724 -19.437 27.138 -0 0 -0 4.5535 -14.812 18.243 4.5535 -14.812 18.243 6.796 7.2259 -53.37 15.772 -14.468 -28.331 3.6334 13.493 -52.549 -0 0 -0 -0 0 -0 -0 0 -0 6.796 7.2259 -53.37 -24.252 -22.267 -54.3 10.196 56.099 -21.97 -0 0 -0 -0 0 -0 -0 0 -0 
0 92.241 0 -0 0 -0 7.0012 7.0508 -55.374 3.7724 -2.1182 -10.68 3.7724 -2.1182 -10.68 3.1961 -1.7326 -8.9799 -0 0 -0 19.956 38.958 32.728 -118.62 -15.342 -49.293 -0 0 -0 -0 0 -0 -35.634 7.9558 -16.794 46.445 -18.761 26.274 -0 0 -0 4.7967 -14.202 20.242 4.7967 -14.202 20.242 7.0012 7.0508 -55.374 17.212 -13.604 -30.388 4.7595 13.243 -49.603 -0 0 -0 -0 0 -0 -0 0 -0 7.0012 7.0508 -55.374 -23.039 -23.165 -54.598 11.308 56.791 -22.347 -0 0 -0 -0 0 -0 -0 0 -0 
0 92.241 0 -0 0 -0 7.2534 6.8202 -56.966 3.9944 -2.0901 -10.873 3.9944 -2.0901 -10.873 3.3828 -1.7054 -9.1425 -0 0 -0 17.222 38.647 35.894 -117.75 -14.981 -49.479 -0 0 -0 -0 0 -0 -35.734 5.0475 -15.311 44.374 -17.883 25.504 -0 0 -0 4.8831 -13.742 21.977 4.8831 -13.742 21.977 7.2534 6.8202 -56.966 17.864 -13.493 -32.857 6.1914 14.442 -47.285 -0 0 -0 -0 0 -0 -0 0 -0 7.2534 6.8202 -56.966 -22.213 -23.37 -53.695 15.047 56.746 -24.939 -0 0 -0 -0 0 -0 -0 0 -0 
0 92.241 0 -0 0 -0 7.7001 6.3968 -58.222 4.1372 -2.1345 -11.01 4.1372 -2.1345 -11.01 3.5037 -1.7403 -9.2587 -0 0 -0 15.034 38.251 38.498 -116.64 -14.356 -50.142 -0 0 -0 -0 0 -0 -35.829 2.5701 -14.535 42.565 -16.995 24.954 -0 0 -0 4.8464 -13.313 23.33 4.8464 -13.313 23.33 7.7001 6.3968 -58.222 17.007 -14.07 -35.341 8.3857 17.239 -47.405 -0 0 -0 -0 0 -0 -0 0 -0 7.7001 6.3968 -58.222 -21.672 -23.098 -51.728 20.023 55.687 -29.044 -0 0 -0 -0 0 -0 -0 0 -0 
0 92.241 0 -0 0 -0 8.1411 5.7999 -59.348 4.2004 -2.2722 -10.955 4.2004 -2.2722 -10.955 3.5584 -1.8554 -9.2134 -0 0 -0 13.876 38.115 39.626 -115.76 -13.857 -51.13 -0 0 -0 -0 0 -0 -35.909 0.81118 -14.401 40.957 -16.32 25.007 -0 0 -0 4.676 -12.82 24.207 4.676 -12.82 24.207 8.1411 5.7999 -59.348 14.709 -14.794 -37.965 11.331 21.452 -50.926 -0 0 -0 -0 0 -0 -0 0 -0 8.1411 5.7999 -59.348 -20.977 -22.671 -50.078 23 54.316 -31.765 -0 0 -0 -0 0 -0 -0 0 -0 
